<svg width="240" height="240" viewBox="0 0 240 240" fill="none" xmlns="http://www.w3.org/2000/svg">
<rect width="240" height="240" rx="5" fill="#333333"/>
<path d="M109.644 130.917C109.644 156.235 109.644 172.47 109.644 197.835C99.6673 198.4 94.7261 198.917 84.8438 200.47C84.8438 147.764 84.8438 182.494 84.8438 129.788" fill="url(#paint0_linear)"/>
<path d="M84.8438 117.177C84.8438 91.8589 84.8438 42.353 84.8438 42.353L109.644 47.6236C109.644 47.6236 109.644 65.6001 109.644 118.306" fill="url(#paint1_linear)"/>
<path d="M109.554 64.5648C114.354 64.5177 116.754 64.5177 121.507 64.5177C130.307 64.5177 134.166 69.4589 134.166 80.5177C134.166 86.6354 134.166 89.6942 134.166 95.8118C134.166 108.235 128.519 112.094 119.248 112.141C115.342 112.188 113.413 112.188 109.507 112.282H84.8482V134.494C121.884 130.729 142.825 121.788 142.825 121.788C153.884 117.129 159.06 107.2 159.06 90.9648C159.06 86.0236 159.06 83.5295 159.06 78.5883C159.013 54.306 147.954 42.353 122.213 42.353C107.201 42.353 99.7188 42.353 84.707 42.353" fill="url(#paint2_linear)"/>
<path d="M84.8438 112.329C132.044 115.906 142.914 122.306 142.914 122.306C155.338 127.906 159.385 140.141 159.385 156.612C159.385 166.353 159.385 171.2 159.385 180.941C159.385 188.612 159.62 194.259 162.067 200.518C151.997 198.918 146.961 198.4 136.797 197.835C135.432 193.741 134.538 191.294 134.538 178.635C134.538 168.847 134.538 164 134.538 154.212C134.538 139.765 129.55 134.212 118.256 134.353C114.82 134.4 113.079 134.447 109.644 134.541H84.8438" fill="#DF2E1C"/>
<defs>
<linearGradient id="paint0_linear" x1="97.2372" y1="197.286" x2="97.2372" y2="109.842" gradientUnits="userSpaceOnUse">
<stop offset="0.6205" stop-color="#D12A19"/>
<stop offset="0.8576"/>
</linearGradient>
<linearGradient id="paint1_linear" x1="97.2372" y1="45.7879" x2="97.2372" y2="139.777" gradientUnits="userSpaceOnUse">
<stop offset="0.6237" stop-color="#D12A19"/>
<stop offset="0.8333"/>
</linearGradient>
<linearGradient id="paint2_linear" x1="117.799" y1="101.514" x2="109.974" y2="164.502" gradientUnits="userSpaceOnUse">
<stop offset="0.1302" stop-color="#D12A19"/>
<stop offset="0.5148"/>
</linearGradient>
</defs>
</svg>
