<svg width="540" height="102" viewBox="0 0 540 102" fill="none" xmlns="http://www.w3.org/2000/svg">
<path d="M14.5768 27.8711H14.2953V101.037H0V0H19.9258L35.9415 60.4656H36.2231V0H50.362V101.037H34.0647L14.5768 27.8711Z" fill="#DF2E1C"/>
<path d="M77.6719 42.6043H99.4745V57.0247H77.6719V86.6163H105.105V101.037H61.7812V0H105.074V14.4204H77.6406V42.6043H77.6719Z" fill="#DF2E1C"/>
<path d="M110.295 0.03125H159.374V14.4517H142.764V101.068H126.905V14.4517H110.295V0.03125Z" fill="#DF2E1C"/>
<path d="M182.18 44.9191H202.669V59.3395H182.18V101.037H166.289V0H208.299V14.4204H182.18V44.9191Z" fill="#DF2E1C"/>
<path d="M249.148 101.068C248.272 98.4717 247.709 96.8764 247.709 88.6496V72.7589C247.709 63.3747 244.518 59.9026 237.324 59.9026H231.85V101.037H215.959V0H239.92C256.374 0 263.443 7.66375 263.443 23.2416V31.1869C263.443 41.5721 260.127 48.2036 253.058 51.5506V51.8321C261.003 55.1479 263.6 62.6553 263.6 73.1969V88.7747C263.6 93.6858 263.756 97.2831 265.32 101.037H249.148V101.068ZM231.85 14.4517V45.4822H238.043C243.955 45.4822 247.584 42.8859 247.584 34.7842V24.8369C247.584 17.6111 245.144 14.4517 239.513 14.4517H231.85Z" fill="#DF2E1C"/>
<path d="M289.877 42.6043H311.68V57.0247H289.877V86.6163H317.31V101.037H274.018V0H317.31V14.4204H289.877V42.6043Z" fill="#DF2E1C"/>
<path d="M350.938 82.456H351.219L363.2 0.03125H377.777L362.199 101.068H338.519L322.941 0.03125H338.957L350.938 82.456Z" fill="#DF2E1C"/>
<path d="M385.162 0.03125H401.053V101.068H385.162V0.03125Z" fill="#DF2E1C"/>
<path d="M428.453 42.6043H450.256V57.0247H428.453V86.6163H455.886V101.037H412.594V0H455.886V14.4204H428.453V42.6043Z" fill="#DF2E1C"/>
<path d="M501.058 47.2339H500.776L495.146 101.068H473.343L462.082 0.03125H477.535L485.918 79.7033H486.199L493.707 0.03125H509.003L516.792 80.2976H517.074L525.144 0.03125H539.001L527.74 101.068H506.657L501.058 47.2339Z" fill="#DF2E1C"/>
</svg>
