<svg width="20" height="17" viewBox="0 0 20 17" fill="none" xmlns="http://www.w3.org/2000/svg">
<path d="M17.7405 8.2365L17.7405 8.23658L10.0014 15.8536L2.26327 8.23662L2.26313 8.23648C-0.419939 5.5965 1.46557 1 5.33782 1C6.39557 1 7.19251 1.51601 7.83481 2.16914C8.1572 2.49696 8.42319 2.84214 8.65613 3.15492C8.68025 3.18731 8.70481 3.22044 8.72954 3.25378C8.81719 3.37199 8.90688 3.49295 8.98601 3.59328C9.07311 3.7037 9.22175 3.88801 9.40393 4.02376L10.0016 4.46912L10.5992 4.02357C10.7809 3.8881 10.9294 3.70396 11.0162 3.59402C11.0948 3.4944 11.184 3.37421 11.2714 3.25661C11.2965 3.22276 11.3215 3.18912 11.346 3.15624C11.5792 2.84366 11.8459 2.49824 12.1689 2.17015C12.813 1.51598 13.6106 1 14.665 1C18.5452 1 20.4137 5.60614 17.7405 8.2365ZM9.74218 16.1087C9.74312 16.1078 9.74405 16.1069 9.74499 16.106L9.74218 16.1087Z" stroke="#F44336" stroke-width="2"/>
</svg>
