<svg width="30" height="25" viewBox="0 0 30 25" fill="none" xmlns="http://www.w3.org/2000/svg">
<path d="M28.8281 0H28.8135C24.8109 0 21.0475 1.59672 18.2174 4.49661C16.8264 5.92225 15.743 7.57839 15 9.3816C14.257 7.57839 13.1742 5.92225 11.7826 4.49661C8.95254 1.59672 5.18906 0 1.18652 0H1.17188C0.524414 0 0 0.537241 0 1.20054V1.21554C0 5.31598 1.55859 9.17151 4.38926 12.0708C6.94512 14.6892 10.2615 16.2451 13.8281 16.5218V23.7995C13.8281 24.4628 14.3525 25 15 25C15.6475 25 16.1719 24.4628 16.1719 23.7995V16.5224C19.7385 16.2451 23.0549 14.6898 25.6107 12.0714C28.4414 9.17151 30 5.31598 30 1.21554V1.20054C30 0.537241 29.4756 0 28.8281 0Z" fill="#A5DFA8"/>
</svg>
