<svg width="24" height="25" viewBox="0 0 24 25" fill="none" xmlns="http://www.w3.org/2000/svg">
<path d="M17.0724 0.0783691H6.92688C3.10076 0.0783691 0 3.26139 0 7.18808V17.6003C0 21.5262 3.10149 24.7092 6.92688 24.7092H17.0724C20.8985 24.7092 24 21.5262 24 17.6003V7.18733C24 3.26138 20.8985 0.0783691 17.0724 0.0783691ZM21.7897 17.7825C21.7897 20.389 19.7308 22.5014 17.1917 22.5014H6.80829C4.26846 22.5014 2.21026 20.3883 2.21026 17.7825V7.12685C2.21026 4.52026 4.26919 2.40795 6.80829 2.40795H17.191C19.7308 2.40795 21.789 4.521 21.789 7.12685V17.7825H21.7897Z" fill="#888888"/>
<path d="M12.0004 6.06396C8.56136 6.06396 5.77344 8.92504 5.77344 12.4543C5.77344 15.9837 8.56136 18.8447 12.0004 18.8447C15.4395 18.8447 18.2274 15.9837 18.2274 12.4543C18.2274 8.92504 15.4395 6.06396 12.0004 6.06396ZM12.0004 16.5974C9.77125 16.5974 7.96405 14.7428 7.96405 12.4551C7.96405 10.1674 9.77125 8.31281 12.0004 8.31281C14.2296 8.31281 16.0368 10.1674 16.0368 12.4551C16.0368 14.7428 14.2296 16.5974 12.0004 16.5974Z" fill="#888888"/>
<path d="M18.4351 4.33228C17.6341 4.33228 16.9844 4.99901 16.9844 5.82105C16.9844 6.64308 17.6341 7.30981 18.4351 7.30981C19.2362 7.30981 19.8859 6.64308 19.8859 5.82105C19.8859 4.99901 19.2362 4.33228 18.4351 4.33228Z" fill="#888888"/>
</svg>
