<svg width="20" height="17" viewBox="0 0 20 17" fill="none" xmlns="http://www.w3.org/2000/svg">
<path d="M19.2188 0H19.209C16.5406 0 14.0316 1.0451 12.1449 2.94317C11.2176 3.87629 10.4953 4.96028 10 6.14054C9.50469 4.96028 8.78281 3.87629 7.85508 2.94317C5.96836 1.0451 3.45937 0 0.791016 0H0.78125C0.349609 0 0 0.35164 0 0.785788V0.79561C0 3.47947 1.03906 6.00303 2.92617 7.9007C4.63008 9.61451 6.84102 10.6329 9.21875 10.814V15.5775C9.21875 16.0116 9.56836 16.3632 10 16.3632C10.4316 16.3632 10.7812 16.0116 10.7812 15.5775V10.8144C13.159 10.6329 15.3699 9.6149 17.0738 7.9011C18.9609 6.00303 20 3.47947 20 0.79561V0.785788C20 0.35164 19.6504 0 19.2188 0Z" fill="#4CAF50"/>
</svg>
