<svg width="240" height="45" viewBox="0 0 240 45" fill="none" xmlns="http://www.w3.org/2000/svg">
<path d="M6.49064 12.4095H6.36528V44.986H0V0H8.87239L16.0037 26.922H16.1291V0H22.4247V44.986H15.168L6.49064 12.4095Z" fill="#DF2E1C"/>
<path d="M34.5854 18.9693H44.2935V25.3899H34.5854V38.5654H46.8006V44.986H27.5098V0H46.7867V6.42061H34.5715V18.9693H34.5854Z" fill="#DF2E1C"/>
<path d="M49.1113 0.0140381H70.965V6.43465H63.569V45.0001H56.5073V6.43465H49.1113V0.0140381Z" fill="#DF2E1C"/>
<path d="M81.1206 20H90.2437V26.4206H81.1206V44.986H74.0449V0H92.7508V6.42061H81.1206V20Z" fill="#DF2E1C"/>
<path d="M110.938 45C110.548 43.844 110.297 43.1337 110.297 39.4707V32.3955C110.297 28.2172 108.877 26.6713 105.673 26.6713H103.236V44.986H96.1602V0H106.829C114.156 0 117.303 3.41224 117.303 10.3482V13.8858C117.303 18.5097 115.827 21.4624 112.679 22.9526V23.078C116.217 24.5543 117.373 27.8969 117.373 32.5905V39.5264C117.373 41.7131 117.443 43.3147 118.139 44.986H110.938V45ZM103.236 6.43453V20.2507H105.994C108.626 20.2507 110.242 19.0947 110.242 15.4874V11.0585C110.242 7.84122 109.155 6.43453 106.648 6.43453H103.236Z" fill="#DF2E1C"/>
<path d="M129.075 18.9693H138.783V25.3899H129.075V38.5654H141.291V44.986H122.014V0H141.291V6.42061H129.075V18.9693Z" fill="#DF2E1C"/>
<path d="M156.267 36.7132H156.392L161.727 0.0140381H168.217L161.281 45.0001H150.737L143.801 0.0140381H150.932L156.267 36.7132Z" fill="#DF2E1C"/>
<path d="M171.506 0.0140381H178.581V45.0001H171.506V0.0140381Z" fill="#DF2E1C"/>
<path d="M190.777 18.9693H200.485V25.3899H190.777V38.5654H202.992V44.986H183.715V0H202.992V6.42061H190.777V18.9693Z" fill="#DF2E1C"/>
<path d="M223.105 21.0307H222.979L220.472 45.0001H210.764L205.75 0.0140381H212.631L216.363 35.4875H216.489L219.832 0.0140381H226.643L230.111 35.7522H230.236L233.83 0.0140381H240L234.986 45.0001H225.598L223.105 21.0307Z" fill="#DF2E1C"/>
</svg>
