<svg width="84" height="16" viewBox="0 0 84 16" fill="none" xmlns="http://www.w3.org/2000/svg">
<path d="M2.27172 4.25557H2.22784V15.427H0V0H3.10533L5.60129 9.23234H5.64517V0H7.84864V15.427H5.3088L2.27172 4.25557Z" fill="#888888"/>
<path d="M12.1044 6.50514H15.5022V8.70695H12.1044V13.2252H16.3797V15.427H9.62793V0H16.3748V2.20181H12.0995V6.50514H12.1044Z" fill="#888888"/>
<path d="M17.1895 0.00494385H24.8382V2.20676H22.2496V15.432H19.778V2.20676H17.1895V0.00494385Z" fill="#888888"/>
<path d="M28.3915 6.85858H31.5846V9.06039H28.3915V15.427H25.915V0H32.4621V2.20181H28.3915V6.85858Z" fill="#888888"/>
<path d="M38.8285 15.4318C38.692 15.0354 38.6043 14.7918 38.6043 13.5357V11.1094C38.6043 9.67652 38.1071 9.14636 36.9858 9.14636H36.1327V15.427H33.6562V0H37.3904C39.9547 0 41.0564 1.17016 41.0564 3.54869V4.76184C41.0564 6.34753 40.5396 7.36008 39.4379 7.87113V7.91411C40.6761 8.42039 41.0808 9.56667 41.0808 11.1762V13.5548C41.0808 14.3046 41.1051 14.8539 41.3489 15.427H38.8285V15.4318ZM36.1327 2.20659V6.94455H37.0979C38.0193 6.94455 38.5848 6.54813 38.5848 5.3111V3.79228C38.5848 2.68899 38.2046 2.20659 37.3271 2.20659H36.1327Z" fill="#888888"/>
<path d="M45.1757 6.50514H48.5735V8.70695H45.1757V13.2252H49.451V15.427H42.7041V0H49.451V2.20181H45.1757V6.50514Z" fill="#888888"/>
<path d="M54.6922 12.5902H54.736L56.6031 0.00494385H58.8749L56.4471 15.432H52.7568L50.3291 0.00494385H52.8251L54.6922 12.5902Z" fill="#888888"/>
<path d="M60.0254 0.00494385H62.5018V15.432H60.0254V0.00494385Z" fill="#888888"/>
<path d="M66.7724 6.50514H70.1702V8.70695H66.7724V13.2252H71.0477V15.427H64.3008V0H71.0477V2.20181H66.7724V6.50514Z" fill="#888888"/>
<path d="M78.0869 7.21218H78.043L77.1655 15.432H73.7677L72.0127 0.00494385H74.4209L75.7274 12.1699H75.7713L76.9412 0.00494385H79.3251L80.5389 12.2606H80.5828L81.8406 0.00494385H84.0001L82.2452 15.432H78.9595L78.0869 7.21218Z" fill="#888888"/>
</svg>
