<svg width="150" height="29" viewBox="0 0 150 29" fill="none" xmlns="http://www.w3.org/2000/svg">
<g clip-path="url(#clip0)">
<path d="M4.06 7.75H3.98V28.11H0V0H5.54L10 16.83H10.08V0H14.02V28.12H9.48L4.06 7.75Z" fill="#E51017"/>
<path d="M21.6104 11.85H27.6704V15.87H21.6104V24.1H29.2404V28.12H17.1904V0H29.2404V4.02H21.6104V11.85Z" fill="#E51017"/>
<path d="M30.6904 0H44.3504V4.02H39.7304V28.12H35.3104V4.02H30.6904V0Z" fill="#E51017"/>
<path d="M50.7003 12.49H56.4003V16.51H50.7003V28.12H46.2803V0H57.9703V4.02H50.7003V12.49Z" fill="#E51017"/>
<path d="M69.3396 28.12C69.0996 27.4 68.9396 26.96 68.9396 24.67V20.25C68.9396 17.64 68.0596 16.68 66.0496 16.68H64.5196V28.13H60.0996V0H66.7696C71.3496 0 73.3196 2.13 73.3196 6.47V8.68C73.3196 11.57 72.3996 13.42 70.4296 14.34V14.42C72.6396 15.34 73.3596 17.43 73.3596 20.36V24.7C73.3596 26.07 73.3996 27.07 73.8396 28.11H69.3396V28.12ZM64.5196 4.02V12.66H66.2496C67.8996 12.66 68.8996 11.94 68.8996 9.69V6.91C68.8996 4.9 68.2196 4.02 66.6496 4.02H64.5196Z" fill="#E51017"/>
<path d="M80.67 11.85H86.73V15.87H80.67V24.1H88.3V28.12H76.25V0H88.3V4.02H80.67V11.85Z" fill="#E51017"/>
<path d="M97.6601 22.94H97.7401L101.07 0H105.13L100.79 28.12H94.2001L89.8701 0H94.3301L97.6601 22.94Z" fill="#E51017"/>
<path d="M107.18 0H111.6V28.12H107.18V0Z" fill="#E51017"/>
<path d="M119.23 11.85H125.29V15.87H119.23V24.1H126.86V28.12H114.81V0H126.86V4.02H119.23V11.85Z" fill="#E51017"/>
<path d="M139.44 13.13H139.36L137.79 28.11H131.72L128.59 0H132.89L135.22 22.17H135.3L137.39 0H141.65L143.82 22.33H143.9L146.14 0H150L146.87 28.12H141L139.44 13.13Z" fill="#E51017"/>
</g>
<defs>
<clipPath id="clip0">
<rect width="150" height="28.12" fill="white"/>
</clipPath>
</defs>
</svg>
