<?xml version="1.0" encoding="utf-8"?>
<!-- Generator: Adobe Illustrator 24.1.0, SVG Export Plug-In . SVG Version: 6.00 Build 0)  -->
<svg version="1.1" id="Layer_1" xmlns="http://www.w3.org/2000/svg" xmlns:xlink="http://www.w3.org/1999/xlink" x="0px" y="0px"
	 viewBox="0 0 62 62" style="enable-background:new 0 0 62 62;" xml:space="preserve">
<style type="text/css">
	.st0{fill:#E0301D;}
	.st1{fill:#FFFFFF;}
	.st2{enable-background:new    ;}
</style>
<circle class="st0" cx="31" cy="31" r="31"/>
<g>
	<path class="st1" d="M31.22,7.4c0.31,0,0.55-0.24,0.55-0.55V4.63c0-0.31-0.24-0.55-0.55-0.55c-0.31,0-0.55,0.24-0.55,0.55v2.22
		C30.66,7.15,30.92,7.4,31.22,7.4z"/>
	<path class="st1" d="M21.46,8.39l1.56,1.56c0.22,0.22,0.56,0.22,0.79,0.01c0.22-0.22,0.22-0.56,0.01-0.79c0,0,0,0-0.01-0.01
		L22.25,7.6c-0.22-0.22-0.56-0.22-0.79-0.01C21.24,7.81,21.24,8.16,21.46,8.39C21.45,8.38,21.46,8.39,21.46,8.39z"/>
	<path class="st1" d="M38.36,10.04L38.36,10.04c0.23,0.2,0.58,0.17,0.78-0.07l0,0l1.43-1.68c0.2-0.23,0.18-0.58-0.06-0.78
		c-0.23-0.2-0.58-0.18-0.78,0.06c0,0,0,0-0.01,0.01l-1.43,1.68C38.09,9.49,38.12,9.85,38.36,10.04z"/>
	<path class="st1" d="M32.51,27.7c0.31,0,0.55-0.24,0.55-0.55v-6.09h1.1c1.23,0,2.22-0.99,2.22-2.22c0-1.23-0.99-2.22-2.22-2.22
		s-2.22,0.99-2.22,2.22v1.1h-1.1v-1.1c0-1.23-0.99-2.22-2.22-2.22c-1.23,0-2.22,0.99-2.22,2.22s0.99,2.22,2.22,2.22h1.1v6.09
		c0,0.31,0.24,0.55,0.55,0.55c0.31,0,0.55-0.24,0.55-0.55v-6.09h1.1v6.09C31.95,27.46,32.21,27.7,32.51,27.7z M33.06,18.84
		c0-0.61,0.5-1.1,1.1-1.1c0.61,0,1.1,0.5,1.1,1.1s-0.5,1.1-1.1,1.1h-1.1V18.84z M29.75,19.95h-1.1c-0.61,0-1.1-0.5-1.1-1.1
		c0-0.61,0.5-1.1,1.1-1.1c0.61,0,1.1,0.5,1.1,1.1V19.95z"/>
	<path class="st1" d="M31.82,10c-4.89-0.23-9.04,3.54-9.28,8.42c-0.13,2.8,1.07,5.49,3.23,7.27c0.39,0.31,0.63,0.77,0.64,1.26v1.3
		c0,0.7,0.45,1.33,1.1,1.56v0.66c0,0.41,0.16,0.8,0.43,1.1c-0.58,0.63-0.58,1.59,0,2.22c-0.62,0.67-0.57,1.72,0.1,2.34
		c0.31,0.28,0.71,0.43,1.12,0.43c0.3,0.01,0.54-0.22,0.55-0.52c0-0.11-0.03-0.23-0.1-0.33c-0.02-0.04-0.04-0.07-0.07-0.09
		c-0.05-0.04-0.09-0.07-0.15-0.1c-0.02-0.01-0.03-0.02-0.05-0.02c-0.06-0.02-0.11-0.03-0.18-0.04c-0.01,0-0.01,0-0.02,0
		c-0.31,0-0.55-0.24-0.55-0.55s0.24-0.55,0.55-0.55h2.22c0.31,0,0.55-0.24,0.55-0.55s-0.24-0.55-0.55-0.55h-2.22
		c-0.31,0-0.55-0.24-0.55-0.55c0-0.31,0.24-0.55,0.55-0.55h2.22c0.31,0,0.55-0.24,0.55-0.55s-0.24-0.55-0.55-0.55h-2.22
		c-0.31,0-0.55-0.24-0.55-0.55v-0.55h2.77c0.31,0,0.55-0.24,0.55-0.55c0-0.31-0.24-0.55-0.55-0.55h-3.32
		c-0.31,0-0.55-0.24-0.55-0.55v-1.3c-0.01-0.82-0.39-1.61-1.04-2.12c-3.3-2.71-3.78-7.6-1.07-10.91c1.55-1.89,3.91-2.94,6.36-2.82
		c4.09,0.24,7.3,3.59,7.38,7.69c0.02,2.36-1.04,4.6-2.87,6.07c-0.65,0.53-1.01,1.32-1,2.15v1.24c0,0.31-0.24,0.55-0.55,0.55h-1.65
		c-0.31,0-0.55,0.24-0.55,0.55c0,0.31,0.24,0.55,0.55,0.55h1.1v0.55c0,0.31-0.24,0.55-0.55,0.55h-0.55c-0.31,0-0.55,0.24-0.55,0.55
		s0.24,0.55,0.55,0.55h0.55c0.31,0,0.55,0.24,0.55,0.55c0,0.31-0.24,0.55-0.55,0.55h-0.55c-0.31,0-0.55,0.24-0.55,0.55
		s0.24,0.55,0.55,0.55h0.55c0.31,0,0.55,0.24,0.55,0.55s-0.24,0.55-0.55,0.55h-2.77c-0.31,0-0.55,0.24-0.55,0.55
		c0,0.31,0.24,0.55,0.55,0.55h2.12c-0.31,0.86-1.25,1.32-2.12,1.01c-0.26-0.09-0.51-0.25-0.69-0.46c-0.21-0.22-0.55-0.25-0.79-0.05
		c-0.22,0.21-0.25,0.55-0.05,0.79c1.01,1.14,2.76,1.24,3.9,0.23c0.47-0.42,0.79-0.98,0.89-1.61c0.87-0.27,1.35-1.2,1.08-2.06
		c-0.07-0.23-0.2-0.44-0.36-0.62c0.58-0.63,0.58-1.59,0-2.22c0.28-0.3,0.43-0.7,0.43-1.1v-0.66c0.66-0.23,1.1-0.86,1.1-1.56v-1.24
		c-0.01-0.5,0.21-0.97,0.59-1.29c2.1-1.68,3.31-4.25,3.29-6.95C40.17,14.1,36.5,10.28,31.82,10z"/>
</g>
<g class="st2">
	<path class="st1" d="M17.5,48.8c-0.43,0.59-1.01,0.89-1.74,0.89s-1.31-0.29-1.75-0.88s-0.66-1.38-0.66-2.37
		c0-0.99,0.22-1.78,0.66-2.37s1.02-0.88,1.75-0.88s1.31,0.29,1.74,0.88s0.64,1.38,0.64,2.37C18.14,47.42,17.93,48.21,17.5,48.8z
		 M16.8,44.78c-0.24-0.47-0.58-0.71-1.03-0.71s-0.79,0.24-1.04,0.71c-0.25,0.47-0.38,1.02-0.38,1.65c0,0.64,0.12,1.2,0.38,1.67
		s0.6,0.71,1.04,0.71s0.79-0.24,1.03-0.71c0.24-0.47,0.36-1.03,0.36-1.67C17.16,45.8,17.04,45.25,16.8,44.78z M19.89,51.33v-8.8h1
		v8.8H19.89z"/>
	<path class="st1" d="M26.21,46.96c-0.66,1.25-1.69,2.2-3.08,2.84l-0.75-0.59c1.31-0.59,2.24-1.38,2.79-2.37
		c0.55-0.99,0.85-1.81,0.9-2.48h-3.14v-0.84h4.29C27.2,44.56,26.87,45.71,26.21,46.96z M29.07,51.33V46.9h-1.83v-0.85h1.83v-3.52h1
		v8.8H29.07z"/>
	<path class="st1" d="M38.13,51.33V46.8h-1.71c-0.05,0.88-0.29,1.58-0.71,2.1c-0.42,0.52-0.98,0.79-1.67,0.79
		c-0.73,0-1.31-0.29-1.74-0.88s-0.65-1.38-0.65-2.37c0-0.99,0.22-1.78,0.65-2.37s1.01-0.88,1.74-0.88c0.66,0,1.2,0.24,1.61,0.73
		c0.42,0.49,0.67,1.15,0.75,1.98h1.73v-3.37h1v8.8C39.13,51.33,38.13,51.33,38.13,51.33z M35.08,44.78
		c-0.24-0.47-0.58-0.71-1.03-0.71s-0.79,0.24-1.04,0.71c-0.25,0.47-0.37,1.02-0.37,1.65c0,0.64,0.12,1.2,0.37,1.67
		c0.25,0.47,0.59,0.71,1.04,0.71s0.79-0.24,1.03-0.71c0.24-0.47,0.36-1.03,0.36-1.67C35.44,45.8,35.32,45.25,35.08,44.78z"/>
	<path class="st1" d="M42.42,49.36c-0.28,0.03-0.57,0.04-0.87,0.04h-0.58v-5.8h1.89v0.85h-0.92v4.06c0.01,0,0.14,0,0.38-0.01
		s0.47-0.03,0.67-0.08v0.86C42.89,49.3,42.7,49.33,42.42,49.36z M44.71,49.35c-0.33,0.03-0.66,0.05-0.99,0.05h-0.47v-5.8h1.87v0.85
		h-0.9v4.06c0.01,0,0.15,0,0.41-0.01s0.49-0.04,0.71-0.08v0.86C45.24,49.29,45.04,49.32,44.71,49.35z M47.55,51.33v-4.57h-0.89v4.16
		h-0.94v-8.19h0.94v3.12h0.89v-3.32h0.94v8.8H47.55z"/>
</g>
</svg>
