<svg width="28" height="22" viewBox="0 0 28 22" fill="none" xmlns="http://www.w3.org/2000/svg">
<g clip-path="url(#clip0)">
<path d="M24.6845 5.47697C24.7013 5.71568 24.7013 5.95437 24.7013 6.19528C24.7013 13.5356 19.0257 22.0012 8.64752 22.0012V21.9968C5.5829 22.0001 2.57973 21.1355 0 19.5053C0.445783 19.5581 0.8938 19.5845 1.34293 19.5856C3.88356 19.5878 6.35157 18.7485 8.35033 17.203C5.93595 17.1579 3.81876 15.608 3.07914 13.3453C3.9249 13.5059 4.79636 13.4729 5.62647 13.2496C2.99423 12.726 1.10049 10.4479 1.10049 7.80348C1.10049 7.77928 1.10049 7.75618 1.10049 7.73308C1.8848 8.16318 2.76296 8.40188 3.66123 8.42828C1.18093 6.79918 0.416734 3.55197 1.91385 1.01317C4.77848 4.48367 9.00504 6.59348 13.5422 6.81788C13.0875 4.88847 13.7087 2.86667 15.1745 1.51037C17.447 -0.592826 21.0211 -0.485026 23.1572 1.75127C24.4209 1.50597 25.632 1.04947 26.7403 0.402674C26.3191 1.68857 25.4376 2.78087 24.26 3.47497C25.3783 3.34517 26.471 3.05037 27.5 2.60047C26.7425 3.71697 25.7895 4.69047 24.6845 5.47697Z" fill="#888888"/>
</g>
<defs>
<clipPath id="clip0">
<rect width="27.5" height="22" fill="white"/>
</clipPath>
</defs>
</svg>
