<svg width="35" height="24" viewBox="0 0 35 24" fill="none" xmlns="http://www.w3.org/2000/svg">
<g clip-path="url(#clip0)">
<path d="M33.7786 3.7471C33.3827 2.27226 32.2124 1.11097 30.7285 0.716129C28.0391 0 17.25 0 17.25 0C17.25 0 6.46091 0 3.77148 0.716129C2.28758 1.11097 1.11733 2.27226 0.721364 3.7471C0 6.42194 0 12 0 12C0 12 0 17.5781 0.721364 20.2529C1.11733 21.7277 2.28758 22.889 3.77148 23.2839C6.46091 24 17.25 24 17.25 24C17.25 24 28.0391 24 30.7285 23.2839C32.2124 22.889 33.3827 21.7277 33.7786 20.2529C34.5 17.5781 34.5 12 34.5 12C34.5 12 34.5 6.42194 33.7786 3.7471ZM13.7216 17.0652V6.93484L22.7386 12L13.7216 17.0652Z" fill="#888888"/>
</g>
<defs>
<clipPath id="clip0">
<rect width="34.5" height="24" fill="white"/>
</clipPath>
</defs>
</svg>
